<svg width="40" height="35" viewBox="0 0 40 35" fill="none" xmlns="http://www.w3.org/2000/svg">
<rect width="40" height="35" fill="#817F7F"/>
<circle cx="11.3782" cy="18.6266" r="1.93538" fill="#D9D9D9" fill-opacity="0.5"/>
<circle cx="9.4641" cy="17.4781" r="1.93538" fill="#D9D9D9" fill-opacity="0.5"/>
<circle cx="13.3349" cy="19.8601" r="1.93538" fill="#D9D9D9" fill-opacity="0.5"/>
<path d="M14.6294 13.831V15.4252H12.465V22H10.4751V15.4252H8.31062V13.831H14.6294ZM21.749 18.6486C21.749 18.8348 21.7374 19.0287 21.7141 19.2304H17.2107C17.2417 19.6339 17.3697 19.9442 17.5947 20.1614C17.8274 20.3709 18.1106 20.4756 18.4442 20.4756C18.9407 20.4756 19.2859 20.2661 19.4798 19.8472H21.5977C21.4891 20.2739 21.2913 20.6579 21.0043 20.9992C20.725 21.3406 20.372 21.6082 19.9453 21.8022C19.5186 21.9961 19.0415 22.0931 18.514 22.0931C17.8778 22.0931 17.3115 21.9573 16.815 21.6858C16.3185 21.4143 15.9306 21.0264 15.6513 20.5221C15.3721 20.0179 15.2324 19.4283 15.2324 18.7533C15.2324 18.0784 15.3682 17.4888 15.6397 16.9845C15.919 16.4803 16.3069 16.0924 16.8034 15.8209C17.2999 15.5493 17.8701 15.4136 18.514 15.4136C19.1424 15.4136 19.7009 15.5455 20.1897 15.8092C20.6784 16.073 21.0586 16.4493 21.3301 16.938C21.6094 17.4267 21.749 17.9969 21.749 18.6486ZM19.7126 18.125C19.7126 17.7836 19.5962 17.5121 19.3635 17.3104C19.1307 17.1087 18.8398 17.0078 18.4907 17.0078C18.1571 17.0078 17.874 17.1048 17.6412 17.2987C17.4163 17.4927 17.2766 17.7681 17.2223 18.125H19.7126ZM22.4031 18.7533C22.4031 18.0784 22.5389 17.4888 22.8104 16.9845C23.0897 16.4803 23.4737 16.0924 23.9625 15.8209C24.459 15.5493 25.0253 15.4136 25.6614 15.4136C26.476 15.4136 27.1548 15.6269 27.6979 16.0536C28.2487 16.4803 28.6094 17.0815 28.7801 17.8573H26.6622C26.4838 17.3608 26.1385 17.1126 25.6265 17.1126C25.2619 17.1126 24.971 17.2561 24.7538 17.5431C24.5365 17.8224 24.4279 18.2258 24.4279 18.7533C24.4279 19.2809 24.5365 19.6882 24.7538 19.9752C24.971 20.2545 25.2619 20.3941 25.6265 20.3941C26.1385 20.3941 26.4838 20.1459 26.6622 19.6494H28.7801C28.6094 20.4096 28.2487 21.007 27.6979 21.4414C27.1471 21.8759 26.4682 22.0931 25.6614 22.0931C25.0253 22.0931 24.459 21.9573 23.9625 21.6858C23.4737 21.4143 23.0897 21.0264 22.8104 20.5221C22.5389 20.0179 22.4031 19.4283 22.4031 18.7533ZM33.8359 15.4369C34.5807 15.4369 35.178 15.6851 35.628 16.1816C36.0779 16.6704 36.3029 17.3453 36.3029 18.2064V22H34.3246V18.4741C34.3246 18.0396 34.2122 17.7021 33.9872 17.4617C33.7622 17.2212 33.4596 17.1009 33.0795 17.1009C32.6994 17.1009 32.3968 17.2212 32.1718 17.4617C31.9469 17.7021 31.8344 18.0396 31.8344 18.4741V22H29.8445V13.3888H31.8344V16.3794C32.0361 16.0924 32.3115 15.8635 32.6606 15.6929C33.0097 15.5222 33.4015 15.4369 33.8359 15.4369Z" fill="#111111"/>
<path d="M6.88535 14.4939V15.7835H4.19323V17.1766H6.20761V18.4285H4.19323V21.1018H2.58361V14.4939H6.88535Z" fill="#211C5B"/>
<path d="M9.43863 19.9139V20.453H5.8838V19.9139H9.43863Z" fill="#211C5B"/>
</svg>
