<svg width="51" height="44" viewBox="0 0 51 44" fill="none" xmlns="http://www.w3.org/2000/svg">
<path d="M12.7462 0C19.7885 0 25.4925 5.59242 25.4925 12.4913C25.4925 5.59242 31.1964 0 38.2387 0C45.281 0 50.985 5.59242 50.985 12.4913C50.985 22.8891 40.6796 26.5568 26.7416 43.1078C26.5882 43.2896 26.3969 43.4357 26.1812 43.5359C25.9654 43.6361 25.7304 43.688 25.4925 43.688C25.2546 43.688 25.0196 43.6361 24.8038 43.5359C24.5881 43.4357 24.3968 43.2896 24.2434 43.1078C10.3053 26.5568 0 22.8891 0 12.4913C0 5.59242 5.70395 0 12.7462 0Z" fill="#ED3D3D"/>
</svg>
