<svg width="36" height="19" viewBox="0 0 36 19" fill="none" xmlns="http://www.w3.org/2000/svg">
<circle cx="9.37822" cy="9.6266" r="1.93538" fill="#D9D9D9" fill-opacity="0.5"/>
<circle cx="7.4641" cy="8.4781" r="1.93538" fill="#D9D9D9" fill-opacity="0.5"/>
<circle cx="11.3349" cy="10.8601" r="1.93538" fill="#D9D9D9" fill-opacity="0.5"/>
<path d="M12.6294 4.83098V6.42522H10.465V13H8.47507V6.42522H6.31062V4.83098H12.6294ZM19.749 9.64861C19.749 9.8348 19.7374 10.0287 19.7141 10.2304H15.2107C15.2417 10.6339 15.3697 10.9442 15.5947 11.1614C15.8274 11.3709 16.1106 11.4756 16.4442 11.4756C16.9407 11.4756 17.2859 11.2661 17.4798 10.8472H19.5977C19.4891 11.2739 19.2913 11.6579 19.0043 11.9992C18.725 12.3406 18.372 12.6082 17.9453 12.8022C17.5186 12.9961 17.0415 13.0931 16.514 13.0931C15.8778 13.0931 15.3115 12.9573 14.815 12.6858C14.3185 12.4143 13.9306 12.0264 13.6513 11.5221C13.3721 11.0179 13.2324 10.4283 13.2324 9.75334C13.2324 9.07841 13.3682 8.48881 13.6397 7.98455C13.919 7.48029 14.3069 7.0924 14.8034 6.82087C15.2999 6.54935 15.8701 6.41358 16.514 6.41358C17.1424 6.41358 17.7009 6.54547 18.1897 6.80923C18.6784 7.073 19.0586 7.44926 19.3301 7.938C19.6094 8.42675 19.749 8.99695 19.749 9.64861ZM17.7126 9.12495C17.7126 8.78361 17.5962 8.51208 17.3635 8.31038C17.1307 8.10867 16.8398 8.00782 16.4907 8.00782C16.1571 8.00782 15.874 8.10479 15.6412 8.29874C15.4163 8.49269 15.2766 8.76809 15.2223 9.12495H17.7126ZM20.4031 9.75334C20.4031 9.07841 20.5389 8.48881 20.8104 7.98455C21.0897 7.48029 21.4737 7.0924 21.9625 6.82087C22.459 6.54935 23.0253 6.41358 23.6614 6.41358C24.476 6.41358 25.1548 6.62692 25.6979 7.05361C26.2487 7.48029 26.6094 8.08152 26.7801 8.85731H24.6622C24.4838 8.3608 24.1385 8.11255 23.6265 8.11255C23.2619 8.11255 22.971 8.25607 22.7538 8.54311C22.5365 8.8224 22.4279 9.2258 22.4279 9.75334C22.4279 10.2809 22.5365 10.6882 22.7538 10.9752C22.971 11.2545 23.2619 11.3941 23.6265 11.3941C24.1385 11.3941 24.4838 11.1459 24.6622 10.6494H26.7801C26.6094 11.4096 26.2487 12.007 25.6979 12.4414C25.1471 12.8759 24.4682 13.0931 23.6614 13.0931C23.0253 13.0931 22.459 12.9573 21.9625 12.6858C21.4737 12.4143 21.0897 12.0264 20.8104 11.5221C20.5389 11.0179 20.4031 10.4283 20.4031 9.75334ZM31.8359 6.43686C32.5807 6.43686 33.178 6.68511 33.628 7.18161C34.0779 7.67036 34.3029 8.34529 34.3029 9.20641V13H32.3246V9.47406C32.3246 9.03962 32.2122 8.70215 31.9872 8.46166C31.7622 8.22116 31.4596 8.10092 31.0795 8.10092C30.6994 8.10092 30.3968 8.22116 30.1718 8.46166C29.9469 8.70215 29.8344 9.03962 29.8344 9.47406V13H27.8445V4.38878H29.8344V7.37944C30.0361 7.09239 30.3115 6.86354 30.6606 6.69287C31.0097 6.52219 31.4015 6.43686 31.8359 6.43686Z" fill="#111111"/>
<path d="M4.88535 5.49388V6.78346H2.19323V8.17659H4.20761V9.42852H2.19323V12.1018H0.583606V5.49388H4.88535Z" fill="#211C5B"/>
<path d="M7.43863 10.9139V11.453H3.8838V10.9139H7.43863Z" fill="#211C5B"/>
</svg>
