<svg width="40" height="40" viewBox="0 0 40 40" fill="none" xmlns="http://www.w3.org/2000/svg">
<rect width="40" height="40" rx="20" fill="#817F7F"/>
<circle cx="11.3782" cy="20.6266" r="1.93538" fill="#D9D9D9" fill-opacity="0.5"/>
<circle cx="9.4641" cy="19.4781" r="1.93538" fill="#D9D9D9" fill-opacity="0.5"/>
<circle cx="13.3349" cy="21.8601" r="1.93538" fill="#D9D9D9" fill-opacity="0.5"/>
<path d="M14.6294 15.831V17.4252H12.465V24H10.4751V17.4252H8.31062V15.831H14.6294ZM21.749 20.6486C21.749 20.8348 21.7374 21.0287 21.7141 21.2304H17.2107C17.2417 21.6339 17.3697 21.9442 17.5947 22.1614C17.8274 22.3709 18.1106 22.4756 18.4442 22.4756C18.9407 22.4756 19.2859 22.2661 19.4798 21.8472H21.5977C21.4891 22.2739 21.2913 22.6579 21.0043 22.9992C20.725 23.3406 20.372 23.6082 19.9453 23.8022C19.5186 23.9961 19.0415 24.0931 18.514 24.0931C17.8778 24.0931 17.3115 23.9573 16.815 23.6858C16.3185 23.4143 15.9306 23.0264 15.6513 22.5221C15.3721 22.0179 15.2324 21.4283 15.2324 20.7533C15.2324 20.0784 15.3682 19.4888 15.6397 18.9845C15.919 18.4803 16.3069 18.0924 16.8034 17.8209C17.2999 17.5493 17.8701 17.4136 18.514 17.4136C19.1424 17.4136 19.7009 17.5455 20.1897 17.8092C20.6784 18.073 21.0586 18.4493 21.3301 18.938C21.6094 19.4267 21.749 19.9969 21.749 20.6486ZM19.7126 20.125C19.7126 19.7836 19.5962 19.5121 19.3635 19.3104C19.1307 19.1087 18.8398 19.0078 18.4907 19.0078C18.1571 19.0078 17.874 19.1048 17.6412 19.2987C17.4163 19.4927 17.2766 19.7681 17.2223 20.125H19.7126ZM22.4031 20.7533C22.4031 20.0784 22.5389 19.4888 22.8104 18.9845C23.0897 18.4803 23.4737 18.0924 23.9625 17.8209C24.459 17.5493 25.0253 17.4136 25.6614 17.4136C26.476 17.4136 27.1548 17.6269 27.6979 18.0536C28.2487 18.4803 28.6094 19.0815 28.7801 19.8573H26.6622C26.4838 19.3608 26.1385 19.1126 25.6265 19.1126C25.2619 19.1126 24.971 19.2561 24.7538 19.5431C24.5365 19.8224 24.4279 20.2258 24.4279 20.7533C24.4279 21.2809 24.5365 21.6882 24.7538 21.9752C24.971 22.2545 25.2619 22.3941 25.6265 22.3941C26.1385 22.3941 26.4838 22.1459 26.6622 21.6494H28.7801C28.6094 22.4096 28.2487 23.007 27.6979 23.4414C27.1471 23.8759 26.4682 24.0931 25.6614 24.0931C25.0253 24.0931 24.459 23.9573 23.9625 23.6858C23.4737 23.4143 23.0897 23.0264 22.8104 22.5221C22.5389 22.0179 22.4031 21.4283 22.4031 20.7533ZM33.8359 17.4369C34.5807 17.4369 35.178 17.6851 35.628 18.1816C36.0779 18.6704 36.3029 19.3453 36.3029 20.2064V24H34.3246V20.4741C34.3246 20.0396 34.2122 19.7021 33.9872 19.4617C33.7622 19.2212 33.4596 19.1009 33.0795 19.1009C32.6994 19.1009 32.3968 19.2212 32.1718 19.4617C31.9469 19.7021 31.8344 20.0396 31.8344 20.4741V24H29.8445V15.3888H31.8344V18.3794C32.0361 18.0924 32.3115 17.8635 32.6606 17.6929C33.0097 17.5222 33.4015 17.4369 33.8359 17.4369Z" fill="#111111"/>
<path d="M6.88535 16.4939V17.7835H4.19323V19.1766H6.20761V20.4285H4.19323V23.1018H2.58361V16.4939H6.88535Z" fill="#211C5B"/>
<path d="M9.43863 21.9139V22.453H5.8838V21.9139H9.43863Z" fill="#211C5B"/>
</svg>
