<svg width="766" height="404" viewBox="0 0 766 404" fill="none" xmlns="http://www.w3.org/2000/svg">
<circle cx="205.249" cy="210.684" r="42.3571" fill="#D9D9D9" fill-opacity="0.5"/>
<circle cx="163.357" cy="185.549" r="42.3571" fill="#D9D9D9" fill-opacity="0.5"/>
<circle cx="248.071" cy="237.681" r="42.3571" fill="#D9D9D9" fill-opacity="0.5"/>
<path d="M276.403 101.215V136.106H229.033V280H185.483V136.106H138.112V101.215H276.403ZM432.221 206.652C432.221 210.727 431.966 214.972 431.457 219.386H332.896C333.575 228.215 336.377 235.007 341.301 239.761C346.394 244.345 352.591 246.637 359.892 246.637C370.758 246.637 378.314 242.053 382.559 232.884H428.91C426.533 242.223 422.204 250.627 415.922 258.098C409.809 265.568 402.084 271.426 392.746 275.67C383.408 279.915 372.966 282.037 361.42 282.037C347.498 282.037 335.103 279.066 324.237 273.124C313.371 267.181 304.881 258.692 298.769 247.656C292.657 236.62 289.601 223.716 289.601 208.944C289.601 194.173 292.572 181.269 298.514 170.233C304.627 159.197 313.116 150.708 323.982 144.765C334.849 138.823 347.328 135.852 361.42 135.852C375.173 135.852 387.397 138.738 398.094 144.511C408.791 150.283 417.11 158.518 423.053 169.215C429.165 179.911 432.221 192.39 432.221 206.652ZM387.652 195.192C387.652 187.721 385.105 181.779 380.012 177.364C374.918 172.95 368.551 170.743 360.911 170.743C353.61 170.743 347.413 172.865 342.319 177.11C337.395 181.354 334.339 187.382 333.151 195.192H387.652ZM446.537 208.944C446.537 194.173 449.508 181.269 455.451 170.233C461.563 159.197 469.967 150.708 480.664 144.765C491.53 138.823 503.925 135.852 517.847 135.852C535.675 135.852 550.531 140.521 562.416 149.859C574.471 159.197 582.366 172.356 586.101 189.334H539.749C535.844 178.468 528.289 173.035 517.083 173.035C509.103 173.035 502.736 176.176 497.982 182.458C493.228 188.57 490.851 197.399 490.851 208.944C490.851 220.49 493.228 229.404 497.982 235.686C502.736 241.798 509.103 244.854 517.083 244.854C528.289 244.854 535.844 239.421 539.749 228.555H586.101C582.366 245.194 574.471 258.267 562.416 267.775C550.361 277.283 535.505 282.037 517.847 282.037C503.925 282.037 491.53 279.066 480.664 273.124C469.967 267.181 461.563 258.692 455.451 247.656C449.508 236.62 446.537 223.716 446.537 208.944ZM696.751 136.361C713.051 136.361 726.124 141.794 735.972 152.66C745.819 163.357 750.743 178.128 750.743 196.975V280H707.448V202.832C707.448 193.324 704.986 185.938 700.062 180.675C695.138 175.412 688.517 172.78 680.197 172.78C671.877 172.78 665.256 175.412 660.332 180.675C655.408 185.938 652.946 193.324 652.946 202.832V280H609.396V91.5374H652.946V156.99C657.361 150.708 663.388 145.699 671.029 141.964C678.669 138.229 687.243 136.361 696.751 136.361Z" fill="#111111"/>
<path d="M106.919 128.381V156.604H48.0004V187.094H92.0865V214.493H48.0004V273H12.7726V128.381H106.919Z" fill="#211C5B"/>
<path d="M162.8 240V251.8H85V240H162.8Z" fill="#211C5B"/>
</svg>
